<svg version="1.1" viewBox="0.0 0.0 319.0 100.501312335958" fill="none" stroke="none" stroke-linecap="square" stroke-miterlimit="10" xmlns:xlink="http://www.w3.org/1999/xlink" xmlns="http://www.w3.org/2000/svg"><clipPath id="p.0"><path d="m0 0l319.0 0l0 100.50131l-319.0 0l0 -100.50131z" clip-rule="nonzero"/></clipPath><g clip-path="url(#p.0)"><path fill="#000000" fill-opacity="0.0" d="m0 0l319.0 0l0 100.50131l-319.0 0z" fill-rule="evenodd"/><path fill="#000000" fill-opacity="0.0" d="m0 0l306.99213 0l0 92.09449l-306.99213 0z" fill-rule="evenodd"/><path fill="#4a86e8" d="m72.55307 55.678123q0.90625 -0.359375 1.5 -0.359375q0.96875 0 1.4375 0.71875q0.484375 0.71875 0.484375 1.859375q0 1.796875 -0.875 3.0625q-0.859375 1.265625 -2.96875 2.28125q-3.53125 1.671875 -9.171875 2.671875q-5.640625 0.984375 -11.109375 0.984375q-7.546875 0 -12.65625 -1.703125q-5.09375 -1.71875 -7.59375 -4.71875q-2.484375 -3.0 -2.484375 -6.78125q0 -5.15625 3.328125 -8.78125q3.328125 -3.625 9.8125 -5.25q-3.546875 -1.015625 -5.4375 -3.59375q-1.875 -2.59375 -1.875 -5.765625q0 -4.328125 2.71875 -7.65625q2.734375 -3.328125 7.34375 -5.125q4.625 -1.796875 10.15625 -1.796875q7.4375 0 11.15625 3.21875q3.71875 3.203125 3.71875 8.296875q0 3.546875 -1.296875 5.734375q-1.28125 2.1875 -3.6875 2.1875q-1.671875 0 -2.640625 -0.75q-0.953125 -0.75 -0.953125 -2.25q0 -1.015625 0.296875 -2.21875q0.296875 -1.984375 0.296875 -2.703125q0 -2.15625 -1.625 -3.5q-1.609375 -1.359375 -5.390625 -1.359375q-5.09375 0 -8.15625 2.15625q-3.0625 2.15625 -3.0625 5.828125q0 2.8125 2.3125 4.640625q2.3125 1.828125 7.53125 2.015625q1.3125 0.0625 1.84375 0.609375q0.546875 0.53125 0.546875 1.78125q0 3.96875 -3.59375 4.03125q-4.984375 0.109375 -8.25 1.375q-3.265625 1.265625 -4.75 3.21875q-1.46875 1.9375 -1.46875 4.15625q0 3.71875 3.484375 5.609375q3.484375 1.890625 11.046875 1.890625q4.96875 0 10.515625 -1.15625q5.5625 -1.171875 9.515625 -2.859375zm33.659958 -2.453125q0.78125 0 1.234375 0.71875q0.453125 0.71875 0.453125 1.96875q0 2.40625 -1.140625 3.734375q-2.640625 3.109375 -5.796875 5.1875q-3.140625 2.0625 -7.109375 2.0625q-3.0625 0 -5.4375 -1.140625q-2.359375 -1.140625 -3.734375 -3.234375q-3.421875 4.3125 -8.109375 4.3125q-3.296875 0 -5.21875 -1.90625q-1.921875 -1.921875 -1.921875 -5.109375q0 -3.0 1.375 -4.859375q1.390625 -1.859375 3.90625 -1.859375q2.15625 0 2.15625 1.625q0 0.421875 -0.109375 1.5q-0.1875 2.15625 -0.1875 2.453125q0 1.796875 1.5625 1.796875q1.140625 0 2.1875 -1.34375q1.046875 -1.34375 1.734375 -3.6875q0.703125 -2.34375 0.703125 -5.15625q0 -2.171875 -0.546875 -3.640625q-0.53125 -1.46875 -1.3125 -1.46875q-0.671875 0 -0.96875 0.328125q-0.296875 0.328125 -0.59375 1.109375q-0.359375 0.96875 -0.96875 1.546875q-0.59375 0.5625 -2.09375 0.5625q-1.3125 0 -2.09375 -0.921875q-0.78125 -0.9375 -0.78125 -2.859375q0 -3.0625 1.859375 -4.796875q1.859375 -1.75 4.796875 -1.75q2.515625 0 4.546875 1.234375q2.046875 1.234375 3.125 3.5625q1.8125 -2.390625 4.0625 -3.59375q2.25 -1.203125 4.40625 -1.203125q2.34375 0 3.5625 1.078125q1.234375 1.078125 1.234375 3.484375q0 2.703125 -1.015625 4.234375q-1.015625 1.53125 -2.46875 1.53125q-1.3125 0 -1.796875 -0.53125q-0.484375 -0.546875 -0.71875 -1.578125q-0.125 -0.71875 -0.359375 -1.078125q-0.234375 -0.359375 -0.84375 -0.359375q-0.71875 0 -1.53125 1.359375q-0.796875 1.34375 -1.375 3.5625q-0.5625 2.21875 -0.5625 4.625q0 2.8125 1.34375 4.34375q1.34375 1.53125 3.6875 1.53125q2.34375 0 4.40625 -1.59375q2.078125 -1.59375 4.84375 -4.953125q0.71875 -0.828125 1.609375 -0.828125zm23.883728 0q0.78125 0 1.21875 0.71875q0.453125 0.71875 0.453125 1.96875q0 2.40625 -1.125 3.734375q-2.59375 3.171875 -5.65625 5.21875q-3.046875 2.03125 -7.015625 2.03125q-12.234375 0 -12.234375 -17.21875q0 -2.640625 0.171875 -5.34375l-2.328125 0q-1.8125 0 -2.4375 -0.65625q-0.625 -0.65625 -0.625 -2.09375q0 -3.359375 2.703125 -3.359375l3.421875 0q1.015625 -6.609375 3.109375 -12.0625q2.109375 -5.46875 5.078125 -8.703125q2.96875 -3.234375 6.390625 -3.234375q2.515625 0 3.953125 2.21875q1.4375 2.21875 1.4375 5.578125q0 9.296875 -7.796875 16.203125l6.71875 0q0.96875 0 1.375 0.421875q0.421875 0.40625 0.421875 1.546875q0 4.140625 -6.78125 4.140625l-7.3125 0q-0.125 3.0 -0.125 4.6875q0 6.234375 1.46875 8.765625q1.46875 2.515625 4.65625 2.515625q2.578125 0 4.546875 -1.5625q1.984375 -1.5625 4.6875 -4.6875q0.71875 -0.828125 1.625 -0.828125zm-10.5 -33.25q-0.90625 0 -2.015625 2.25q-1.109375 2.25 -2.09375 6.25q-0.984375 3.984375 -1.65625 8.84375q3.546875 -3.0625 5.3125 -6.859375q1.765625 -3.8125 1.765625 -6.9375q0 -3.546875 -1.3125 -3.546875zm14.704971 46.921875q-3.71875 0 -5.953125 -2.6875q-2.21875 -2.703125 -2.21875 -7.09375q0 -4.796875 2.21875 -9.078125q2.234375 -4.296875 5.921875 -6.90625q3.6875 -2.609375 7.828125 -2.609375q1.3125 0 1.765625 0.515625q0.453125 0.5 0.75 1.828125q1.265625 -0.25 2.640625 -0.25q2.9375 0 2.9375 2.109375q0 1.25 -0.890625 6.0q-1.390625 6.890625 -1.390625 9.59375q0 0.90625 0.453125 1.453125q0.453125 0.53125 1.171875 0.53125q1.140625 0 2.75 -1.46875q1.625 -1.46875 4.390625 -4.78125q0.71875 -0.828125 1.625 -0.828125q0.78125 0 1.21875 0.71875q0.453125 0.71875 0.453125 1.96875q0 2.40625 -1.140625 3.734375q-2.453125 3.046875 -5.21875 5.15625q-2.765625 2.09375 -5.34375 2.09375q-1.96875 0 -3.625 -1.34375q-1.65625 -1.359375 -2.484375 -3.6875q-3.125 5.03125 -7.859375 5.03125zm2.15625 -6.0625q1.3125 0 2.515625 -1.546875q1.203125 -1.5625 1.75 -4.140625l2.21875 -11.046875q-2.53125 0.0625 -4.65625 1.890625q-2.125 1.828125 -3.390625 4.828125q-1.265625 3.0 -1.265625 6.359375q0 1.859375 0.75 2.765625q0.75 0.890625 2.078125 0.890625zm49.37184 -7.5q0.78125 0 1.234375 0.75q0.453125 0.75 0.453125 1.890625q0 1.390625 -0.421875 2.171875q-0.421875 0.765625 -1.3125 1.375q-5.171875 3.484375 -7.5625 5.15625l-3.84375 2.578125q-2.28125 12.421875 -5.96875 19.53125q-3.6875 7.109375 -9.390625 7.109375q-3.0625 0 -4.984375 -1.890625q-1.921875 -1.890625 -1.921875 -4.953125q0 -4.25 3.359375 -9.140625q3.359375 -4.890625 12.609375 -12.03125l0.359375 -2.34375q-1.015625 1.625 -2.671875 2.5q-1.65625 0.859375 -3.265625 0.859375q-3.71875 0 -5.953125 -2.6875q-2.21875 -2.703125 -2.21875 -7.09375q0 -4.796875 2.21875 -9.078125q2.234375 -4.296875 5.921875 -6.90625q3.6875 -2.609375 7.828125 -2.609375q1.3125 0 1.765625 0.515625q0.453125 0.5 0.75 1.828125q1.140625 -0.25 2.640625 -0.25q1.5 0 2.125 0.453125q0.640625 0.453125 0.640625 1.765625q0 0.71875 -0.0625 1.140625q-0.234375 1.859375 -1.5 9.421875q-0.234375 1.4375 -0.515625 3.15625q-0.265625 1.703125 -0.5625 3.625q4.609375 -3.59375 8.875 -6.359375q0.78125 -0.484375 1.375 -0.484375zm-21.171875 7.5q1.375 0 2.625 -1.671875q1.265625 -1.6875 1.8125 -4.796875l1.921875 -10.265625q-2.46875 0.0625 -4.5625 1.890625q-2.09375 1.828125 -3.359375 4.828125q-1.265625 3.0 -1.265625 6.359375q0 1.859375 0.75 2.765625q0.75 0.890625 2.078125 0.890625zm-4.984375 27.25q1.5 0 3.390625 -3.609375q1.890625 -3.59375 3.625 -11.453125q-4.609375 3.953125 -6.65625 7.125q-2.03125 3.1875 -2.03125 5.59375q0 1.015625 0.390625 1.671875q0.390625 0.671875 1.28125 0.671875zm27.783096 -21.1875q-2.28125 0 -3.21875 -2.390625q-0.921875 -2.40625 -0.921875 -7.6875q0 -7.796875 2.21875 -14.8125q0.546875 -1.75 1.765625 -2.546875q1.234375 -0.8125 3.453125 -0.8125q1.203125 0 1.671875 0.296875q0.484375 0.296875 0.484375 1.140625q0 0.953125 -0.890625 4.3125q-0.609375 2.40625 -0.96875 4.203125q-0.359375 1.796875 -0.59375 4.4375q1.984375 -5.15625 4.4375 -8.390625q2.46875 -3.25 4.828125 -4.625q2.375 -1.375 4.359375 -1.375q3.890625 0 3.890625 3.890625q0 0.78125 -0.53125 3.78125q-0.484375 2.40625 -0.484375 3.0q0 2.09375 1.5 2.09375q1.671875 0 4.3125 -2.625q0.78125 -0.78125 1.625 -0.78125q0.78125 0 1.234375 0.6875q0.453125 0.6875 0.453125 1.828125q0 2.21875 -1.203125 3.484375q-1.6875 1.734375 -3.9375 2.96875q-2.25 1.21875 -4.765625 1.21875q-3.171875 0 -4.828125 -1.609375q-1.65625 -1.625 -1.65625 -4.390625q0 -0.890625 0.1875 -1.796875q0.125 -1.203125 0.125 -1.609375q0 -0.96875 -0.671875 -0.96875q-0.890625 0 -2.359375 2.015625q-1.46875 2.0 -2.921875 5.3125q-1.4375 3.296875 -2.328125 6.953125q-0.671875 2.8125 -1.546875 3.8125q-0.859375 0.984375 -2.71875 0.984375zm30.424973 0q-3.71875 0 -5.953125 -2.6875q-2.21875 -2.703125 -2.21875 -7.09375q0 -4.796875 2.21875 -9.078125q2.234375 -4.296875 5.921875 -6.90625q3.6875 -2.609375 7.828125 -2.609375q1.3125 0 1.765625 0.515625q0.453125 0.5 0.75 1.828125q1.265625 -0.25 2.640625 -0.25q2.9375 0 2.9375 2.109375q0 1.25 -0.890625 6.0q-1.390625 6.890625 -1.390625 9.59375q0 0.90625 0.453125 1.453125q0.453125 0.53125 1.171875 0.53125q1.140625 0 2.75 -1.46875q1.625 -1.46875 4.390625 -4.78125q0.71875 -0.828125 1.625 -0.828125q0.78125 0 1.21875 0.71875q0.453125 0.71875 0.453125 1.96875q0 2.40625 -1.140625 3.734375q-2.453125 3.046875 -5.21875 5.15625q-2.765625 2.09375 -5.34375 2.09375q-1.96875 0 -3.625 -1.34375q-1.65625 -1.359375 -2.484375 -3.6875q-3.125 5.03125 -7.859375 5.03125zm2.15625 -6.0625q1.3125 0 2.515625 -1.546875q1.203125 -1.5625 1.75 -4.140625l2.21875 -11.046875q-2.53125 0.0625 -4.65625 1.890625q-2.125 1.828125 -3.390625 4.828125q-1.265625 3.0 -1.265625 6.359375q0 1.859375 0.75 2.765625q0.75 0.890625 2.078125 0.890625zm22.918716 6.0625q-2.28125 0 -3.21875 -2.390625q-0.921875 -2.40625 -0.921875 -7.6875q0 -7.796875 2.21875 -14.8125q0.546875 -1.75 1.765625 -2.546875q1.234375 -0.8125 3.453125 -0.8125q1.203125 0 1.671875 0.296875q0.484375 0.296875 0.484375 1.140625q0 0.953125 -0.890625 4.3125q-0.609375 2.40625 -0.96875 4.171875q-0.359375 1.765625 -0.59375 4.40625q1.625 -4.671875 3.875 -7.90625q2.25 -3.25 4.609375 -4.828125q2.375 -1.59375 4.46875 -1.59375q2.109375 0 2.96875 0.953125q0.875 0.953125 0.875 2.9375q0 1.921875 -1.140625 6.96875q-0.484375 2.15625 -0.65625 3.234375q1.984375 -5.046875 4.40625 -8.21875q2.4375 -3.1875 4.765625 -4.53125q2.34375 -1.34375 4.328125 -1.34375q1.921875 0 2.90625 0.984375q1.0 0.984375 1.0 2.90625q0 1.5625 -0.671875 5.875q-0.59375 3.671875 -0.953125 6.9375q-0.359375 3.265625 -0.359375 7.296875q0 2.265625 -0.9375 3.265625q-0.921875 0.984375 -3.03125 0.984375q-1.96875 0 -2.875 -1.015625q-0.90625 -1.015625 -0.90625 -3.0625q0 -2.40625 0.84375 -7.921875q0.71875 -4.796875 0.71875 -6.109375q0 -0.96875 -0.65625 -0.96875q-0.78125 0 -2.21875 2.015625q-1.4375 2.0 -2.875 5.3125q-1.4375 3.296875 -2.34375 6.953125q-0.65625 2.875 -1.53125 3.84375q-0.875 0.953125 -2.796875 0.953125q-1.96875 0 -2.96875 -1.890625q-0.984375 -1.890625 -0.984375 -4.59375q0 -2.265625 0.59375 -6.59375q0.484375 -3.84375 0.484375 -5.03125q0 -0.96875 -0.65625 -0.96875q-0.90625 0 -2.28125 2.171875q-1.375 2.15625 -2.671875 5.515625q-1.28125 3.359375 -2.0625 6.59375q-0.671875 2.8125 -1.546875 3.8125q-0.859375 0.984375 -2.71875 0.984375z" fill-rule="nonzero"/><path fill="#000000" fill-opacity="0.0" d="m235.89534 41.357075l0 0c0 -3.3398666 2.7075043 -6.0473633 6.0473633 -6.0473633l34.33046 0c1.6038818 0 3.1420288 0.63713074 4.2761536 1.7712326c1.1340942 1.1341019 1.7712097 2.6722717 1.7712097 4.2761307l0 24.18874c0 3.3398666 -2.707489 6.0473633 -6.0473633 6.0473633l-34.33046 0l0 0c-3.339859 0 -6.0473633 -2.7074966 -6.0473633 -6.0473633z" fill-rule="evenodd"/><path stroke="#4a86e8" stroke-width="2.0" stroke-linejoin="round" stroke-linecap="butt" d="m235.89534 41.357075l0 0c0 -3.3398666 2.7075043 -6.0473633 6.0473633 -6.0473633l34.33046 0c1.6038818 0 3.1420288 0.63713074 4.2761536 1.7712326c1.1340942 1.1341019 1.7712097 2.6722717 1.7712097 4.2761307l0 24.18874c0 3.3398666 -2.707489 6.0473633 -6.0473633 6.0473633l-34.33046 0l0 0c-3.339859 0 -6.0473633 -2.7074966 -6.0473633 -6.0473633z" fill-rule="evenodd"/><path fill="#000000" fill-opacity="0.0" d="m268.46457 31.873991l4.7874146 0l0 0c0.4552307 0 0.8918457 0.18084908 1.2137451 0.50276375c0.32192993 0.32191086 0.5027771 0.7585182 0.5027771 1.2137718l0 1.7165375c0 3.8146973E-5 -3.0517578E-5 6.866455E-5 -6.1035156E-5 6.866455E-5l-8.220428 -6.866455E-5l0 0c-3.0517578E-5 0 -6.1035156E-5 -3.0517578E-5 -6.1035156E-5 -6.866455E-5l6.1035156E-5 -1.7164688l0 0c0 -0.9480171 0.76852417 -1.7165356 1.7165527 -1.7165356z" fill-rule="evenodd"/><path stroke="#4a86e8" stroke-width="2.0" stroke-linejoin="round" stroke-linecap="butt" d="m268.46457 31.873991l4.7874146 0l0 0c0.4552307 0 0.8918457 0.18084908 1.2137451 0.50276375c0.32192993 0.32191086 0.5027771 0.7585182 0.5027771 1.2137718l0 1.7165375c0 3.8146973E-5 -3.0517578E-5 6.866455E-5 -6.1035156E-5 6.866455E-5l-8.220428 -6.866455E-5l0 0c-3.0517578E-5 0 -6.1035156E-5 -3.0517578E-5 -6.1035156E-5 -6.866455E-5l6.1035156E-5 -1.7164688l0 0c0 -0.9480171 0.76852417 -1.7165356 1.7165527 -1.7165356z" fill-rule="evenodd"/></g></svg>